<svg id="Layer_1" data-name="Layer 1" xmlns="http://www.w3.org/2000/svg" viewBox="0 0 335 221"><defs><style>.cls-1{fill:#fff;}.cls-2{fill:#241f20;}.cls-3{fill:#eb1c24;}.cls-4{fill:#231f20;}.cls-5{fill:#fdfdfd;}.cls-6{fill:#605d5e;}.cls-7{fill:#282425;}.cls-8{fill:#322f30;}.cls-9{fill:#6e6b6c;}.cls-10{fill:#5d5a5b;}.cls-11{fill:#999798;}</style></defs><path class="cls-1" d="M228.56,106c.81.38,1.62.76,2.41,1.16.39.21.78.42,1.14.65a4.8,4.8,0,0,1,.52.36,1.6,1.6,0,0,1,.36.39.61.61,0,0,1,.06.43c0,.08,0,.18-.06.28a1.6,1.6,0,0,1-.42.72,3.73,3.73,0,0,1-.47.41,6,6,0,0,1-1.08.68,8.31,8.31,0,0,1-1.19.5,11.91,11.91,0,0,1-5.18.41,16.47,16.47,0,0,1-2.58-.55,20.09,20.09,0,0,1-2.49-.92,23.86,23.86,0,0,1-2.36-1.21c-.38-.23-.75-.47-1.12-.72s-.71-.51-1.06-.79a12.62,12.62,0,0,1-3.38-4,9.6,9.6,0,0,1-.64-1.52h0l-.1-.23c-.07-.24-.14-.48-.19-.72a9.55,9.55,0,0,1-.2-1.32,6.46,6.46,0,0,1,0-1.32l-.17,0c0,.24-.05.46-.06.69s0,.45,0,.68a10.35,10.35,0,0,0,.16,1.35c0,.1,0,.2.07.3-2.77,1.19-4.7.88-5.73-.92l-.06,0v0a8.68,8.68,0,0,0,0-2.22,8,8,0,0,0-.22-1.08,5,5,0,0,0-.42-1,4.94,4.94,0,0,1,.13.52,5.34,5.34,0,0,1,.09.53,7.68,7.68,0,0,1,.06,1.07,9.84,9.84,0,0,1-.21,2.1,13,13,0,0,1-.59,2,17.61,17.61,0,0,1-.88,1.93,25.62,25.62,0,0,1-2.33,3.56c-.87,1.14-1.82,2.22-2.78,3.3a21.8,21.8,0,0,0,3.22-2.93,18.49,18.49,0,0,0,2.54-3.59,15.18,15.18,0,0,0,.88-2,10.37,10.37,0,0,0,.34-1.21,3.69,3.69,0,0,0,3,1.38,8.39,8.39,0,0,0,3.1-.71,9.89,9.89,0,0,0,.61,1.56,12.26,12.26,0,0,0,1.46,2.3,14.59,14.59,0,0,0,1.91,1.94,18.19,18.19,0,0,0,2.21,1.59,24.13,24.13,0,0,0,2.41,1.28c.61.28,1.24.53,1.88.76h0a35.59,35.59,0,0,1,2.44,3,11.06,11.06,0,0,1,1,1.69,5.13,5.13,0,0,1,.45,1.81,3.05,3.05,0,0,1-.42,1.7,4.31,4.31,0,0,1-1.28,1.31c4.94-2.1-.19-8-1.43-9.27a0,0,0,0,1,0,0l-.23-.24h0c.37.14,5.46,2,9-.28C235.32,108.54,233.61,108.2,228.56,106Zm-9.9-8c.44.45.87.91,1.31,1.37a38.78,38.78,0,0,0,3.92,3.76,17.69,17.69,0,0,0,2.24,1.58c.39.24.8.46,1.21.66l.62.29C225.23,104.25,222.07,101.12,218.66,98Zm.85,25.66a3.59,3.59,0,0,0-.21-.3s0,0,0,0-.81.16,1.11-.75h-.08a3,3,0,0,1-.43.06h-1c-.33,0-.66,0-1,0-.67,0-1.34-.12-2-.2-1.35-.16-2.72-.33-4.1-.43h-.05l0-.07-.2,0c-1.29-.08-2.58-.11-3.87-.08l-1,0-1,.06-1,.08-.51,0-.51,0c-.67.06-1.34.11-2,.14a16.48,16.48,0,0,1-2,0,7,7,0,0,1-.95-.13,3.11,3.11,0,0,1-.83-.27,1.36,1.36,0,0,1-.28-.21.57.57,0,0,1-.12-.23s0,0,0,0v-.15a1.48,1.48,0,0,1,0-.21,1.21,1.21,0,0,1,0-.19.58.58,0,0,1,0-.19,1.86,1.86,0,0,1,.39-.71,3.17,3.17,0,0,1,.3-.34c.12-.1.23-.21.36-.31a16.34,16.34,0,0,1,1.62-1.17l.42-.27.11-.07.1-.07.2-.11a9,9,0,0,1,.88-.43c.61-.26,1.24-.5,1.88-.7a25.22,25.22,0,0,1,3.91-.92,20.73,20.73,0,0,1,4-.25l.5,0a4.21,4.21,0,0,1,.5,0c.33,0,.66.08,1,.12.17,0,.33.06.49.09l.25,0,.24.06.49.11.48.13.24.06.24.08.48.14.47.17.24.09.23.09c.63.23,1.23.54,1.85.83l.06-.08c-.12-.12-.25-.23-.39-.35l-.2-.16-.21-.16-.43-.3-.45-.27-.22-.13-.24-.12-.47-.22-.49-.2-.24-.1-.25-.08-.5-.16-.51-.13-.26-.06-.26-.05-.51-.1c-.35,0-.69-.11-1-.14l-.52,0-.52,0c-.55,0-1.1,0-1.65,0a6.56,6.56,0,0,0,.4-1,8.26,8.26,0,0,0,.35-1.64,8.58,8.58,0,0,0,0-1.68,10.17,10.17,0,0,0-.29-1.65,10.4,10.4,0,0,0-.58-1.56,9.52,9.52,0,0,0-.82-1.42,10.52,10.52,0,0,0-1.05-1.25c-.2-.19-.4-.37-.61-.54a4.33,4.33,0,0,0-.66-.46h0a20.56,20.56,0,0,1,1.62,2.66,12,12,0,0,1,1,2.82,9.3,9.3,0,0,1,.21,1.47c0,.25,0,.49,0,.74s0,.24,0,.37l0,.36a11.29,11.29,0,0,1-.73,2.88c-.46,0-.92.09-1.38.15a25.62,25.62,0,0,0-4.06.91,19.18,19.18,0,0,0-2,.7,9.51,9.51,0,0,0-1,.46l-.25.14-.11.07-.11.07-.44.28a18.61,18.61,0,0,0-1.71,1.22c-.14.11-.27.24-.41.36a5.08,5.08,0,0,0-.39.41,3,3,0,0,0-.58,1.08c0,.1,0,.21-.06.31a1.72,1.72,0,0,0,0,.32c0,.1,0,.21,0,.31l0,.15a1.43,1.43,0,0,0,0,.16,1.49,1.49,0,0,0,.35.67,1.85,1.85,0,0,0,.53.41,4.15,4.15,0,0,0,1.1.39,8,8,0,0,0,1.08.15,18.49,18.49,0,0,0,2.1,0c.7,0,1.39-.08,2.08-.14l.51,0,.51,0c.33,0,.67-.07,1-.09l1-.06.68,0a76.67,76.67,0,0,0-8.49,2.18,6.74,6.74,0,0,0-1.27-1.29l-.39-.29-.41-.27c-.28-.18-.56-.34-.85-.49l-.43-.22-.44-.2-.44-.19c-.15-.05-.3-.12-.45-.16l-.46-.15-.46-.13-.23-.06-.23-.05-.46-.1c.52.35,1,.69,1.54,1.06.24.18.49.36.73.56s.46.38.69.58l.33.3.32.31c.22.21.42.42.62.63s.41.43.62.63l.09.09c-2.54,1-4.68,2.3-5.85,4-.81,1.2-1,2.11-.54,2.76a2.77,2.77,0,0,0,2.41.83,22.31,22.31,0,0,0,4.12-.53c-.68.6-1.29,1.18-1.83,1.75a18.22,18.22,0,0,1-7.13.54l-.06.37-.06.33c0-.11.11-.23.17-.34l1.22.27h3.91a11.52,11.52,0,0,1-3.91,1.52c-1.63.12-8.45,6.42-8.68,11.38-.09,1.92,3.37,1.59,3.37,1.59s3.89-4.5,5.8-5.74c1.28-.84,2.23-1.45,2.7-1.75l.31-.2.05,0,1.43,1.23,4.22-2.11,3.73-2.06.06,0,3.76-2.13,0,0a56.7,56.7,0,0,0,6.92-4.32,1.48,1.48,0,0,0-.25-2.08,2.33,2.33,0,0,0-.31-.28h0s-6.41.62.46-.21h0l.39-.05,1-.11C222.54,129.39,220.29,124.92,219.51,123.69ZM203.45,90.47a21.15,21.15,0,0,1,3.65.3,16.17,16.17,0,0,1,2.74.69A13.74,13.74,0,0,0,203.45,90.47Zm-8.52,16.6a4.62,4.62,0,0,0-2.67-2.67,5.45,5.45,0,0,0-4.89.8,20.12,20.12,0,0,0-3.63,3.63,10.06,10.06,0,0,0-2.58,4.33c-.66,3,1.91,5.68,4.56,6.57a7.62,7.62,0,0,0,5.5,0,7,7,0,0,0,3.3-3.26,11.63,11.63,0,0,0,1.21-4.81A10.23,10.23,0,0,0,194.93,107.07ZM176.48,89.42c-3.59.19-5.24,1.37-6.76,8.5-1.39,6.52.2,9.94,6.31,11s9.57-2.58,9.35-8.86C185.23,94.88,182.56,89.09,176.48,89.42Zm-3.17-1.53.1.1.21-.21Zm-9.5,1.71,3,3A6.8,6.8,0,0,0,163.81,89.6Zm.2,3.56c-1.08-1.75-3.21-1.65-5.06-1.56-6.39.3-9.87,10.92-5.38,15.25a8.21,8.21,0,0,0,5.38,1.89C169.52,109.41,167.7,98.77,164,93.16Zm-5.74,48.44-.07.07h.15Zm-5.64-.65a7,7,0,0,0-1.25-1.23c-.25-.21-.52-.41-.8-.63a57.53,57.53,0,0,0-5-3.21h0l-.35-.21.62,0,1.52-.05,1.77,0a1.87,1.87,0,0,0,.2.29l.39-.05-.12-.72a18.47,18.47,0,0,1-7-.51c-.55-.59-1.17-1.2-1.86-1.81a22.58,22.58,0,0,0,4,.5c1.15,0,2-.22,2.37-.81s.25-1.51-.54-2.7c-1.18-1.74-3.31-3-5.85-4l.12-.11.62-.63.62-.64.33-.31.33-.3c.22-.2.45-.39.69-.58s.48-.37.73-.56c.46-.34.95-.66,1.45-1,1.76,1.25,4.12,1.53,7-.09,7.11-4,3-9,1.3-10.61s-3-6.71-8-4.78c-3.35,1.29-3.75,3.88-4,6.68-.18,3.06,1.11,6.93,3.65,8.77l-.33.07-.24,0-.23.06-.46.13-.45.15-.45.17a4.22,4.22,0,0,0-.45.18l-.43.2c-.15.07-.3.14-.44.22s-.56.32-.84.49l-.41.27c-.13.1-.27.19-.39.29a6.76,6.76,0,0,0-1.3,1.32,81.12,81.12,0,0,0-8.67-2.22l.89,0,1,.06,1,.09.5.05.52,0c.69.06,1.38.11,2.07.13a18.62,18.62,0,0,0,2.11,0,8.24,8.24,0,0,0,1.08-.15,4.12,4.12,0,0,0,1.1-.38,2.28,2.28,0,0,0,.53-.42,1.6,1.6,0,0,0,.35-.67l0-.16v-.15a1.62,1.62,0,0,0,0-.31,1.77,1.77,0,0,0,0-.32,1.73,1.73,0,0,0-.07-.31,2.7,2.7,0,0,0-.58-1.07,3.89,3.89,0,0,0-.38-.42c-.14-.12-.27-.25-.41-.36a17.46,17.46,0,0,0-1.72-1.22l-.43-.28L138,117l-.12-.07-.24-.14a9.42,9.42,0,0,0-1-.45,20.14,20.14,0,0,0-2-.71,25.87,25.87,0,0,0-4.06-.91c-.47-.07-1-.12-1.43-.16a10.67,10.67,0,0,1-.74-2.86l0-.37c0-.12,0-.25,0-.37s0-.49,0-.74a12.26,12.26,0,0,1,.21-1.48,11.94,11.94,0,0,1,1.07-2.82,19,19,0,0,1,1.64-2.65h0a6.08,6.08,0,0,0-.66.47l-.3.27a3.83,3.83,0,0,0-.29.28,9.58,9.58,0,0,0-1,1.25,9.47,9.47,0,0,0-.81,1.42,9.61,9.61,0,0,0-.57,1.55,10.25,10.25,0,0,0-.29,1.64,8.58,8.58,0,0,0,0,1.68,9.13,9.13,0,0,0,.75,2.68c-.56,0-1.13,0-1.7,0l-.52,0-.52,0c-.35,0-.69.09-1,.14l-.52.09-.25,0-.26.07-.51.12-.5.16-.25.09-.24.09-.49.2-.48.23-.23.11-.23.14-.45.26-.42.31a1.7,1.7,0,0,0-.22.15l-.2.17-.39.34.06.08c.63-.29,1.23-.59,1.86-.83l.23-.09.24-.08.47-.17.48-.15.23-.08.25-.06.48-.13.48-.11.25-.06.24,0,.49-.09c.34,0,.66-.1,1-.12l.5,0,.5,0a21.45,21.45,0,0,1,4,.25,25.08,25.08,0,0,1,3.92.92c.64.21,1.27.44,1.88.7a9,9,0,0,1,.88.43l.2.11.1.07.11.07.42.27c.57.38,1.12.76,1.62,1.17.13.1.24.21.36.32s.21.22.3.33a1.86,1.86,0,0,1,.39.71,1.62,1.62,0,0,1,0,.19,1.34,1.34,0,0,1,0,.2c0,.06,0,.13,0,.2l0,.1v0s0,0,0,0a.51.51,0,0,1-.12.23,1.28,1.28,0,0,1-.28.21,3.51,3.51,0,0,1-.83.28,7.25,7.25,0,0,1-.95.12,16.48,16.48,0,0,1-2,0c-.67,0-1.34-.07-2-.14l-.5,0-.52,0c-.34,0-.68-.07-1-.09l-1-.06-1,0c-1.32,0-2.66,0-4,.1l-.11,0v0h0c-1.38.1-2.75.27-4.1.43-.67.07-1.35.15-2,.19-.33,0-.66,0-1,.06h-1a3.18,3.18,0,0,1-.43-.06l-.21-.06-.24-.07-.47-.16-.46-.17c-.3-.12-.6-.26-.89-.41a7.4,7.4,0,0,1-.82-.49,4.2,4.2,0,0,1-1.28-1.31,3.05,3.05,0,0,1-.42-1.7,4.92,4.92,0,0,1,.45-1.81,11,11,0,0,1,1-1.68,34,34,0,0,1,2.43-3h0c.64-.23,1.28-.48,1.89-.76a22.93,22.93,0,0,0,2.4-1.28,17,17,0,0,0,2.22-1.59,14.6,14.6,0,0,0,1.91-1.94,12.79,12.79,0,0,0,1.46-2.3,10.92,10.92,0,0,0,.6-1.56,8.41,8.41,0,0,0,3.11.72,3.7,3.7,0,0,0,3-1.39,9.84,9.84,0,0,0,.34,1.21,14.64,14.64,0,0,0,.88,2,18.15,18.15,0,0,0,2.53,3.59,21.94,21.94,0,0,0,3.23,2.94c-1-1.09-1.91-2.17-2.78-3.31a25.11,25.11,0,0,1-2.34-3.56,20.58,20.58,0,0,1-.87-1.92,13.09,13.09,0,0,1-.59-2,10.54,10.54,0,0,1-.22-2.1,9.28,9.28,0,0,1,.07-1.06,4.51,4.51,0,0,1,.09-.53,4.56,4.56,0,0,1,.13-.53,5.25,5.25,0,0,0-.42,1,8.09,8.09,0,0,0-.22,1.09,9.08,9.08,0,0,0,0,2.21,0,0,0,0,0,0,0l-.06,0c-1,1.79-3,2.1-5.73.91,0-.1,0-.2.07-.3a10.35,10.35,0,0,0,.16-1.35c0-.23,0-.45,0-.68s0-.45-.05-.68l-.18,0a6.46,6.46,0,0,1,0,1.32,11.5,11.5,0,0,1-.2,1.31c0,.22-.1.43-.16.64v0l-.12.27h0a9.6,9.6,0,0,1-.64,1.52,12.64,12.64,0,0,1-3.38,4c-.35.28-.7.54-1.07.8s-.73.48-1.11.71a24,24,0,0,1-2.37,1.21,21.11,21.11,0,0,1-2.4.91c.16,0,.48-.08.31.3h0a2.38,2.38,0,0,1-.14.23h0a15.72,15.72,0,0,1-2.08,2.19c-3.62,3.36-.75,6.66,1,7.78a5.91,5.91,0,0,0,2.84,1.12.06.06,0,0,0,0,0,.19.19,0,0,0,0,.07c0,.1-.06.26-.1.5a17.3,17.3,0,0,0-.13,2.87c.06,2.61,4.7,3.74,4.7,3.74l1.67.53.1,0h0l0,0,1.36,3.31,8.25,3.57.13.16a17.21,17.21,0,0,0,2.85,2.53c.81.61,1.82,1.32,3.08,2.13,4.94,3.18,4.83-1,4.83-1a3.6,3.6,0,0,1,.46.29l.3.25a2.82,2.82,0,0,1,.81,1.17c.37,1.11,8.51,7.21,8.51,7.21s1.4,0,1.84-2.77S154,142.83,152.63,141Zm-3.9-48.34-4.43-.67a69,69,0,0,1,7.33,2.41l.14-.38ZM133.82,90c-7.36-1.5-16.15,9.22-16.15,9.22S111.12,105,107.41,107c.68-.34,1.37-.67,2.06-1,.4-.19.8-.37,1.22-.58s.81-.42,1.21-.65a21,21,0,0,0,2.24-1.58,42.28,42.28,0,0,0,3.92-3.76c1.23-1.31,2.45-2.61,3.76-3.81.65-.6,1.32-1.17,2-1.71.17-.14.35-.27.53-.4l.53-.38c.36-.24.73-.47,1.11-.68a15.72,15.72,0,0,1,4.92-1.66,23.59,23.59,0,0,1,5.25-.24l.3,0C135.6,90.4,134.71,90.22,133.82,90ZM113.38,112a11.92,11.92,0,0,1-5.18-.42,8.94,8.94,0,0,1-1.2-.5,6.29,6.29,0,0,1-1.08-.67,4.58,4.58,0,0,1-.46-.42,1.84,1.84,0,0,1-.33-.45l-.09-.27A1.57,1.57,0,0,1,105,109a.58.58,0,0,1,.06-.42,1.63,1.63,0,0,1,.36-.4c.16-.13.33-.24.51-.36.37-.23.76-.44,1.15-.64-3.63,1.74-3.21,2,.06,4.27s8.38.2,8.81,0A17.27,17.27,0,0,1,113.38,112Z"/><circle class="cls-2" cx="167.5" cy="110.5" r="86.79"/><path class="cls-3" d="M246.93,110.56a79.06,79.06,0,1,1-78.85-79.09A79,79,0,0,1,246.93,110.56Zm-79,71.7a71.7,71.7,0,1,0-71.7-71.67A71.65,71.65,0,0,0,167.9,182.26Z"/><path class="cls-4" d="M167.9,182.26a71.7,71.7,0,1,1,71.66-71.4A71.71,71.71,0,0,1,167.9,182.26ZM129,91.32l0,.14,0,0-.07-.12c.05.18.13.09.21,0A5.44,5.44,0,0,0,131,86.71c0-.17-.16-.44.1-.5s.3.22.39.38a4,4,0,0,1,.36,2.79.44.44,0,0,0-.19.49.12.12,0,0,0,.19.06.52.52,0,0,0,.23-.49,1.79,1.79,0,0,0,0-.23,5,5,0,0,0,.38-1.83,6.58,6.58,0,0,0-.61-2.14c-.36-1,.09-1.67,1.19-1.64a3.49,3.49,0,0,1,2.62,1.49c0,.45.17.66.62.62l.78.59c0,.15,0,.31.24.13,1.47.57,3,.3,4.71.37-.73.53-.68,1.23-.81,1.86a2,2,0,0,1-.93,1.49c-.31-.34-.31,0-.38.17-.47.29-.92,0-1.36-.08,0,.52.38.69.81.89-1,.28-1.49-.6-2.2-.93-.06.91.68,1.36,1.08,2-.91,0-1.14-.63-1.47-1.2a.83.83,0,0,0-.2.69A3.12,3.12,0,0,0,137.1,93a.28.28,0,0,0-.14.3c-.31.45-.1.84.15,1.23-.13.07-.18.16-.07.27s.2.07.27,0a2.27,2.27,0,0,0,1.49.45,8.56,8.56,0,0,0,1.31-.3c.28.15.46.11.49-.23.26-.18.53-.33.77-.52a.41.41,0,0,1,.57,0c1,.72,3.27,0,4.14-.89-.93.16-1.86.55-2.79-.17.58-.08,1.08-.1,1.32-.64,0-.12-.05-.22-.2-.21s-.14.1-.15.19c-.59,0-.8-.33-.82-.84a2.13,2.13,0,0,1,1.07-2,5.69,5.69,0,0,1,1.69-.65,14.67,14.67,0,0,0,3.47-1.07h.27a7,7,0,0,1,2.94,1.41c0,.42.18.62.6.59a1.33,1.33,0,0,1,.46.72c-.19.18-.05.21.1.24a2.58,2.58,0,0,1,.3,1.36,3.15,3.15,0,0,1-1.67,3,3.29,3.29,0,0,1-3.47,0,2.14,2.14,0,0,1-.49-3.15,1.9,1.9,0,0,1,2.75-.29c0,.28.08.4.36.37a1.19,1.19,0,0,1,0,1.52s-.11,0-.07.11.1,0,.15,0a1.4,1.4,0,0,0-.25-2.28,2.3,2.3,0,0,0-2.5-.14,2.45,2.45,0,0,0-1.19,2.45,2.32,2.32,0,0,0,1.5,2.08,4,4,0,0,0,5.32-2.49,4.21,4.21,0,0,0-.95-4c0-.4-.12-.57-.52-.51a14.35,14.35,0,0,0-2.54-1.42v-.51A20.33,20.33,0,0,0,152,84.76a19.62,19.62,0,0,1,1.32-2.42,2.68,2.68,0,0,1,2.54-1.15l.59,0-.2-.26a3.25,3.25,0,0,0-3.45-1l0-.33a3.46,3.46,0,0,1,3.9.26,2.56,2.56,0,0,0,3.39.52c.2,0,.42,0,.36-.28s-.2-.2-.33-.06c-.35-.1-.68-.22-.72-.65a.62.62,0,0,1,.3-.66c.42-.25.65.12.91.31a2.2,2.2,0,0,0,1.68.38c1-.17,1.34-.78.89-1.71-.11-.23-.18-.47,0-.66s.44-.08.65,0c1.15.6,1.15.6,2.07-.22l0,0c.07,0,.17.08.2-.07h-.19c-.3.08-.6.14-.9.24a.84.84,0,0,1-1.09-.42.74.74,0,0,0-1-.32c-.4.15-.92.26-.84.88s-.3.79-.79.85a2.34,2.34,0,0,1-1-.15c-.71-.23-.76-.35-.46-1,0,0,0-.11,0-.17v-.5a2.85,2.85,0,0,1,.39-.11,43.39,43.39,0,0,1,16.84.37,28.38,28.38,0,0,1,7.2,2.46.84.84,0,0,0,.94.47,20.43,20.43,0,0,1,5.61,3.91c-.06.61.14.8.75.74a14.44,14.44,0,0,1,3.54,5.43,16,16,0,0,1-2.4,15.28,28.19,28.19,0,0,1-9.59,8,18.25,18.25,0,0,1-7.88,2.53,20.19,20.19,0,0,0-4.69.79c-.84.25-1.25.66-1.26,1.22s.41,1.09,1.25,1.37a8.29,8.29,0,0,0,2.21.35c1.14.06,2.28.07,3.41.19a22.51,22.51,0,0,1,7.18,2.34,19.56,19.56,0,0,1,5.42,3.58q0,.66.63.6l.09.08c-.05.44.14.65.59.63.13.14.28.27.4.42a13.24,13.24,0,0,1,2.72,12.47,14.84,14.84,0,0,1-4.38,7.43c-.37-.05-.56.09-.53.47-.11.11-.21.23-.33.33a22.86,22.86,0,0,1-7.57,4,23.12,23.12,0,0,1-9.61,1.36c-2-.21-2.46-.37-3.12-2.41-1.58-4.94-4.52-8.61-9.65-10.2l0,0a3,3,0,0,1,.72,2.78,1.8,1.8,0,0,1-2.08,1.69,4.79,4.79,0,0,1-4.21-3.32c.19-.18.05-.21-.11-.24a9.14,9.14,0,0,1-.57-1.59,8.38,8.38,0,0,0-7.47-5.21c.17.3.54.38.73.65q0,.54.48.48a.88.88,0,0,1-.16,1.33,1.83,1.83,0,0,1-2.47-.08,15.19,15.19,0,0,1-2.68-2.87l-.62-.84a12.17,12.17,0,0,0,1,4.59c-.18.19,0,.21.12.23a8.45,8.45,0,0,0,3.44,3.29,16.61,16.61,0,0,0,3.88,1.32,6,6,0,0,1,1.92.71c.59.37.52.94.41,1.48s-.51.48-.88.54a2.83,2.83,0,0,1-.65,0,7.24,7.24,0,0,1-2.19-.81c-.21-.1-.4-.3-.68-.23a7.73,7.73,0,0,0,8.36,5c1.28-.17,2.56-.39,3.84-.58a3.44,3.44,0,0,1,3.6,1.58c.43.63.32,1-.37,1.34a3.69,3.69,0,0,1-2.08.16,24.88,24.88,0,0,0-2.57-.52c.05,0,.05-.06,0-.08s0,0-.06,0l.07.07c.05.19.22.27.35.38a15.59,15.59,0,0,0,4.89,2.91,54.2,54.2,0,0,0,14.75,3.36,30.88,30.88,0,0,0,15.65-3.1,27.72,27.72,0,0,0,5.85-4,1,1,0,0,0,1.09-1.09,29,29,0,0,0,4.15-6.09c.15,0,.3,0,.12-.23a20,20,0,0,0-2.56-19,20.54,20.54,0,0,0-10-6.43c-.62-.2-1.25-.37-2-.59l.6-.25a35.32,35.32,0,0,0,10.53-6.13A21.15,21.15,0,0,0,207.74,94a23.25,23.25,0,0,0-.36-3.63,22.8,22.8,0,0,0-6-12.67,27.58,27.58,0,0,0-9.71-6.4,47.54,47.54,0,0,0-13.28-3.19,63.84,63.84,0,0,0-13.54.11A60.33,60.33,0,0,0,155,70.13l-.06-.2a4.91,4.91,0,0,1,2.51-1.2,10,10,0,0,0,3.89-1.87A6.34,6.34,0,0,0,164,62.23c0-.51.1-1,.16-1.53a6,6,0,0,1,.69-2.41,2.43,2.43,0,0,1,2.73-1.24v.37c-.13.21-.24.42,0,.6a.83.83,0,0,0,.94,0,.72.72,0,0,0,.29-.78,2,2,0,0,0-2.09-1.66,5.53,5.53,0,0,0-4,2.52,1.92,1.92,0,0,0-.26,1.2c0,.55.1,1.1.09,1.64a1.67,1.67,0,0,1-.51,1.35c0-.14-.07-.23-.09-.32A2.2,2.2,0,0,0,160,60.16a2.94,2.94,0,0,0-2.79,1.33,1.51,1.51,0,0,0,.16,2,.87.87,0,0,0,.87.2c.35-.08.31-.35.35-.6.12-.71.45-.88,1.16-.6,0,.27.11.38.37.35a1.82,1.82,0,0,1-.64,2.63,7.45,7.45,0,0,1-2.71.92c-2.5.52-4.92,1.16-6.27,3.65-.61-.51-.66-.87-.24-1.48a4.77,4.77,0,0,1,1.11-1,38.71,38.71,0,0,0,3.45-2.67,4.22,4.22,0,0,0,1.54-4.34,7.44,7.44,0,0,1-.27-3.38,2,2,0,0,1,1.87-1.8l.16.35c0,.19-.09.41.22.43a.48.48,0,0,0,.55-.34,1,1,0,0,0,0-.57c.22-.24.2-.28-.18-.37a1.25,1.25,0,0,0-1-.36,3.11,3.11,0,0,0-2,1,3.06,3.06,0,0,0-1.13,2.71,5.91,5.91,0,0,0,.5,1.37A1.51,1.51,0,0,1,155,61a4.18,4.18,0,0,1-.31-.34,2.19,2.19,0,0,0-3.42-.06,1.63,1.63,0,0,0-.1,2.11.64.64,0,0,0,.66.28.51.51,0,0,0,.41-.56c0-.12,0-.24,0-.35s.11-.49.42-.58a.82.82,0,0,1,.82.18,1.2,1.2,0,0,1,.37.71,2.05,2.05,0,0,1-1,2.36A12.92,12.92,0,0,1,150,66a6,6,0,0,0-3.53,2.75h-.14a3.48,3.48,0,0,0-.66-1.51c0-.16,0-.33-.26-.22s-.09.21,0,.31a8.49,8.49,0,0,1-.76,1.65,4.75,4.75,0,0,1-4.26,2.85,1.91,1.91,0,0,0-1.94,1.42,1.8,1.8,0,0,1-1.56,1.3,2.58,2.58,0,0,0-2.24,3.2c.1.66-.08.92-.76,1-.5,0-1,0-1.52-.06-1,0-1.2.22-1.09,1.18l-.23,0a.49.49,0,0,0-.44.56l-.17.12a2.11,2.11,0,0,0-1.79-.34l-.16-.15c-1.27-.93-2.1-.92-3.26.11-.24.21-.37.27-.67,0a5.6,5.6,0,0,0-3.55-.83c.7.25,1.25.44,1.79.65a3.44,3.44,0,0,1,1.53,1,21.16,21.16,0,0,0-3.08-.36,5.88,5.88,0,0,0-2.8.41c.57-.06,1.13-.15,1.7-.16a5.88,5.88,0,0,1,3.9,1l-.12.21c-1.7,0-3.42,0-4.93,1.13.09.06.11.08.12.07a1.73,1.73,0,0,0,.32-.11,7.1,7.1,0,0,1,4.35-.59c.19,0,.42,0,.51.28.4,1.26.59,1.39,1.91,1.35l.3,0a5.63,5.63,0,0,0,0,.58,1.37,1.37,0,0,0,1.67,1.24c.66-.13.71-.09.7.57a1.1,1.1,0,0,1-.15.68c-.18.06-.51.07-.16.37l-.45.66-.16.14c-.17,0-.4-.09-.5.16a.17.17,0,0,0,.07.14c.19,0,.32-.09.46-.19l0,0,.18-.12a3,3,0,0,0,1.15-1.12l.54-.12a4.06,4.06,0,0,1,.09.7,6.88,6.88,0,0,1-.91,3.3ZM146.61,93c-.1,0-.24,0-.29.11s0,.08.05.08.19-.08.25-.18l0-.05Zm-27.76-9.55c-.21,0-.3.15-.33.35l0,.06,0,0a.38.38,0,0,0,.36-.28s.21-.06.1-.18S118.89,83.42,118.85,83.48Zm-1.49-1.89c.29-.09.49-.11.53-.34,0,0-.07-.1-.1-.1C117.57,81.17,117.49,81.33,117.36,81.59Zm39.87,58.5.05,0,0,0s0,0-.05,0Z"/><path class="cls-5" d="M145,135c-.19-.27-.56-.35-.73-.65a8.38,8.38,0,0,1,7.47,5.21,9.14,9.14,0,0,0,.57,1.59.25.25,0,0,0,.11.24,4.79,4.79,0,0,0,4.21,3.32,1.8,1.8,0,0,0,2.08-1.69,3,3,0,0,0-.72-2.78h0v0c5.13,1.59,8.07,5.26,9.65,10.2.66,2,1.12,2.2,3.12,2.41a23.12,23.12,0,0,0,9.61-1.36,22.86,22.86,0,0,0,7.57-4c.12-.1.22-.22.33-.33a1.49,1.49,0,0,0,.53-.47,14.84,14.84,0,0,0,4.38-7.43,13.24,13.24,0,0,0-2.72-12.47c-.12-.15-.27-.28-.4-.42a2.53,2.53,0,0,0-.59-.63l-.09-.08a2.24,2.24,0,0,0-.63-.6,19.56,19.56,0,0,0-5.42-3.58,22.51,22.51,0,0,0-7.18-2.34c-1.13-.12-2.27-.13-3.41-.19a8.29,8.29,0,0,1-2.21-.35c-.84-.28-1.27-.75-1.25-1.37s.42-1,1.26-1.22a20.19,20.19,0,0,1,4.69-.79,18.25,18.25,0,0,0,7.88-2.53,28.19,28.19,0,0,0,9.59-8,16,16,0,0,0,2.4-15.28A14.44,14.44,0,0,0,191.56,84l-.75-.74a20.43,20.43,0,0,0-5.61-3.91,2.86,2.86,0,0,0-.94-.47,28.38,28.38,0,0,0-7.2-2.46,43.39,43.39,0,0,0-16.84-.37,2.85,2.85,0,0,0-.39.11c-.13,0-.32-.06-.35.09s.19.3.34.41.05.13,0,.17c-.3.69-.25.81.46,1a2.34,2.34,0,0,0,1,.15c.49-.06.87-.23.79-.85s.44-.73.84-.88a.74.74,0,0,1,1,.32A.84.84,0,0,0,165,77c.3-.1.6-.16.9-.24,0,0,0,0,0,0l0,0,0,0c-.92.82-.92.82-2.07.22-.21-.12-.45-.23-.65,0s-.12.43,0,.66c.45.93.14,1.54-.89,1.71a2.2,2.2,0,0,1-1.68-.38c-.26-.19-.49-.56-.91-.31a.62.62,0,0,0-.3.66c0,.43.37.55.72.65.11.13,0,.23,0,.34a2.56,2.56,0,0,1-3.39-.52,3.46,3.46,0,0,0-3.9-.26,6.18,6.18,0,0,0-1.11.67,2.36,2.36,0,0,0,1.15-.34,3.25,3.25,0,0,1,3.45,1l.2.26-.59,0a2.68,2.68,0,0,0-2.54,1.15A19.62,19.62,0,0,0,152,84.76a20.33,20.33,0,0,1-1.25,2.12c-.15.07-.31.17-.32.32s.18.18.32.19a14.35,14.35,0,0,1,2.54,1.42l.52.51a4.21,4.21,0,0,1,.95,4,4,4,0,0,1-5.32,2.49,2.32,2.32,0,0,1-1.5-2.08,2.45,2.45,0,0,1,1.19-2.45,2.3,2.3,0,0,1,2.5.14,1.4,1.4,0,0,1,.25,2.28l-.08-.09a1.19,1.19,0,0,0,0-1.52.65.65,0,0,0-.36-.37,1.9,1.9,0,0,0-2.75.29,2.14,2.14,0,0,0,.49,3.15,3.29,3.29,0,0,0,3.47,0,3.15,3.15,0,0,0,1.67-3,2.58,2.58,0,0,0-.3-1.36.22.22,0,0,0-.1-.24,1.33,1.33,0,0,0-.46-.72,1.55,1.55,0,0,0-.6-.59,7,7,0,0,0-2.94-1.41c.13-.61.11-.63-.65-.7-.25,0-.52,0-.75-.12a5.49,5.49,0,0,0-2.9-.83c-.81-.07-1.62-.12-2.46-.18.16-.28.3-.49.41-.71.21-.43.32-1,0-1.28-.62-.55-.18-.8.17-1.13a1.42,1.42,0,0,0,.24-.25,1.51,1.51,0,0,0,.19-1.66,1.81,1.81,0,0,0-1.66-1,1.22,1.22,0,0,0-1.3.9,1.63,1.63,0,0,1-1.09,1.1,4.24,4.24,0,0,1-1.35.37,11.11,11.11,0,0,0-1.52.21.93.93,0,0,0-.79,1.12A2.13,2.13,0,0,0,138,85.59a9.49,9.49,0,0,0,3.13.44c.61,0,1.22,0,1.87,0-.19.34-.54.38-.7.73h.48c1.16,0,2.32,0,3.48,0s2.08,1,3.3.93c0,0,.06.08.1.12a14.67,14.67,0,0,1-3.47,1.07,5.69,5.69,0,0,0-1.69.65,2.13,2.13,0,0,0-1.07,2c0,.51.23.86.82.84l.35,0c-.24.54-.74.56-1.32.64.93.72,1.86.33,2.79.17-.87.86-3.11,1.61-4.14.89a.41.41,0,0,0-.57,0c-.24.19-.51.34-.77.52a.93.93,0,0,0-.49.23,8.56,8.56,0,0,1-1.31.3,2.27,2.27,0,0,1-1.49-.45l-.2-.22c-.25-.39-.46-.78-.15-1.23.11-.07.31-.09.14-.3a3.12,3.12,0,0,1-.55-1.28.83.83,0,0,1,.2-.69c.33.57.56,1.25,1.47,1.2-.4-.69-1.14-1.14-1.08-2,.71.33,1.16,1.21,2.2.93-.43-.2-.81-.37-.81-.89.44.11.89.37,1.36.08a.5.5,0,0,0,.38-.17,2,2,0,0,0,.93-1.49c.13-.63.08-1.33.81-1.86-1.68-.07-3.24.2-4.71-.37l-.24-.13-.78-.59-.62-.62A3.49,3.49,0,0,0,133,83.6c-1.1,0-1.55.61-1.19,1.64a6.58,6.58,0,0,1,.61,2.14,5,5,0,0,1-.38,1.83l-.21.17a4,4,0,0,0-.36-2.79c-.09-.16-.19-.43-.39-.38s-.1.33-.1.5a5.44,5.44,0,0,1-1.81,4.63.27.27,0,0,0-.07-.08,6.88,6.88,0,0,0,.91-3.3,4.06,4.06,0,0,0-.09-.7c0-.25-.09-.45-.16-.82l-.38.94a3,3,0,0,1-1.15,1.12l-.09-.09.45-.66a.52.52,0,0,0,.16-.37,1.1,1.1,0,0,0,.15-.68c0-.66,0-.7-.7-.57a1.37,1.37,0,0,1-1.67-1.24,5.63,5.63,0,0,1,0-.58c-.09-.24-.2-.08-.3,0-1.32,0-1.51-.09-1.91-1.35-.09-.28-.32-.24-.51-.28a7.1,7.1,0,0,0-4.35.59,1.73,1.73,0,0,1-.32.11s0,0-.12-.07c1.51-1.09,3.23-1.09,4.93-1.13.11,0,.26.08.31,0s-.1-.14-.19-.17a5.88,5.88,0,0,0-3.9-1c-.57,0-1.13.1-1.7.16a5.88,5.88,0,0,1,2.8-.41,21.16,21.16,0,0,1,3.08.36,3.44,3.44,0,0,0-1.53-1c-.54-.21-1.09-.4-1.79-.65a5.6,5.6,0,0,1,3.55.83c.3.22.43.16.67,0,1.16-1,2-1,3.26-.11l-.09.25a.22.22,0,0,0,.25-.1,2.11,2.11,0,0,1,1.79.34c.06.07.13.17.22.08s0-.13-.05-.2a.49.49,0,0,1,.44-.56c.1.05.16.19.3.13s0-.13-.07-.17c-.11-1,.11-1.2,1.09-1.18.5,0,1,.09,1.52.06.68,0,.86-.29.76-1a2.58,2.58,0,0,1,2.24-3.2,1.8,1.8,0,0,0,1.56-1.3,1.91,1.91,0,0,1,1.94-1.42A4.75,4.75,0,0,0,144.68,69a8.49,8.49,0,0,0,.76-1.65l.23-.09a3.48,3.48,0,0,1,.66,1.51s0,.08,0,.08.1,0,.09-.09A6,6,0,0,1,150,66a12.92,12.92,0,0,0,2.92-1.23,2.05,2.05,0,0,0,1-2.36,1.2,1.2,0,0,0-.37-.71.82.82,0,0,0-.82-.18c-.31.09-.37.32-.42.58s0,.23,0,.35a.51.51,0,0,1-.41.56.64.64,0,0,1-.66-.28,1.63,1.63,0,0,1,.1-2.11,2.19,2.19,0,0,1,3.42.06A4.18,4.18,0,0,0,155,61a1.51,1.51,0,0,0,0-1.42,5.91,5.91,0,0,1-.5-1.37,3.06,3.06,0,0,1,1.13-2.71,3.11,3.11,0,0,1,2-1,1.25,1.25,0,0,1,1,.36l.18.37a1,1,0,0,1,0,.57.48.48,0,0,1-.55.34c-.31,0-.24-.24-.22-.43s.26-.18.3-.39l-.46,0a2,2,0,0,0-1.87,1.8,7.44,7.44,0,0,0,.27,3.38,4.22,4.22,0,0,1-1.54,4.34,38.71,38.71,0,0,1-3.45,2.67,4.77,4.77,0,0,0-1.11,1c-.42.61-.37,1,.24,1.48,1.35-2.49,3.77-3.13,6.27-3.65a7.45,7.45,0,0,0,2.71-.92,1.82,1.82,0,0,0,.64-2.63.5.5,0,0,0-.37-.35c-.71-.28-1-.11-1.16.6,0,.25,0,.52-.35.6a.87.87,0,0,1-.87-.2,1.51,1.51,0,0,1-.16-2A2.94,2.94,0,0,1,160,60.16,2.2,2.2,0,0,1,162,62c0,.09.05.18.09.32a1.67,1.67,0,0,0,.51-1.35c0-.54-.06-1.09-.09-1.64a1.92,1.92,0,0,1,.26-1.2,5.53,5.53,0,0,1,4-2.52,2,2,0,0,1,2.09,1.66.72.72,0,0,1-.29.78.83.83,0,0,1-.94,0c-.29-.18-.18-.39,0-.6.14-.05.34-.07.32-.24s-.19-.13-.32-.13a2.43,2.43,0,0,0-2.73,1.24,6,6,0,0,0-.69,2.41c-.06.51-.12,1-.16,1.53a6.34,6.34,0,0,1-2.71,4.63,10,10,0,0,1-3.89,1.87,4.91,4.91,0,0,0-2.51,1.2c-.06.06-.2.09-.14.21s.13,0,.2,0a60.33,60.33,0,0,1,9.87-1.89,63.84,63.84,0,0,1,13.54-.11,47.54,47.54,0,0,1,13.28,3.19,27.58,27.58,0,0,1,9.71,6.4,22.8,22.8,0,0,1,6,12.67,23.25,23.25,0,0,1,.36,3.63,21.15,21.15,0,0,1-7.67,16.72,35.32,35.32,0,0,1-10.53,6.13l-.6.25c.74.22,1.37.39,2,.59a20.54,20.54,0,0,1,10,6.43,20,20,0,0,1,2.56,19,.24.24,0,0,0-.12.23,29,29,0,0,1-4.15,6.09l-1.09,1.09a27.72,27.72,0,0,1-5.85,4,30.88,30.88,0,0,1-15.65,3.1,54.2,54.2,0,0,1-14.75-3.36,15.59,15.59,0,0,1-4.89-2.91c-.13-.11-.3-.19-.35-.38h0a24.88,24.88,0,0,1,2.57.52,3.69,3.69,0,0,0,2.08-.16c.69-.33.8-.71.37-1.34a3.44,3.44,0,0,0-3.6-1.58c-1.28.19-2.56.41-3.84.58a7.73,7.73,0,0,1-8.36-5c.28-.07.47.13.68.23a7.24,7.24,0,0,0,2.19.81,2.83,2.83,0,0,0,.65,0c.37-.06.8-.11.88-.54s.18-1.11-.41-1.48a6,6,0,0,0-1.92-.71,16.61,16.61,0,0,1-3.88-1.32,8.45,8.45,0,0,1-3.44-3.29.25.25,0,0,0-.12-.23,12.17,12.17,0,0,1-1-4.59l.62.84a15.19,15.19,0,0,0,2.68,2.87,1.83,1.83,0,0,0,2.47.08.88.88,0,0,0,.16-1.33A1,1,0,0,0,145,135ZM128.26,80.46l.09-.12c-.08-.09-.12,0-.16,0l-.11.13c-.19.42-.45.71-1,.59-.08,0-.2.09-.3.14s-.22.06-.18.21l.17-.1c.14,0,.29-.1.4-.06.68.23.85-.19.95-.71Zm2.84,1.22c.05,0,.11.11.16,0s-.06-.06-.09-.1-.14-.17-.19-.12S131,81.62,131.1,81.68ZM130,83.18c-.18-.14-.46-.26,0-.54-.27,0-.53-.09-.6.13s.19.35.36.47a.84.84,0,0,0,.17.05,1.15,1.15,0,0,0,1.45-.38.79.79,0,0,0-.09-1C131.34,83,131,83.32,130,83.18ZM139,76.53s0,.06,0,.09c-.28.06-.57.11-.72.42.21.09.47.1.48.38a.41.41,0,0,1-.26.37c-.27.13-.44-.07-.63-.28a.9.9,0,0,0,.69,1,2.13,2.13,0,0,0,1.55-.11,1,1,0,0,0,.6-1.28c1.29-.17,2.09-.67,2.3-1.5-.53.33-1,.81-1.71.79a2.28,2.28,0,0,0,.88-1.69,2.77,2.77,0,0,1-2.21,1.45c.22-.33.54-.59.5-1.12A2.2,2.2,0,0,1,138,76C138.17,76.62,138.6,76.49,139,76.53Zm-8.81,6.09c.27-.4.1-.73-.42-.8a2.67,2.67,0,0,0-1.3.27,2.92,2.92,0,0,1-1.68.32.63.63,0,0,0,.75.16c.57-.19,1.14-.4,1.72-.56S130.08,82.05,130.14,82.62Zm-3.6-.31v-.72A.57.57,0,0,0,126.54,82.31Zm4.54,3.83-.06-.09-.07.07s0,.06.06.09Zm-4.42-3.8,0,0s0,0,0,.07,0,0,0,0ZM143,75.56l0,0-.07,0,0,0Zm-12.18,5.18,0,0h0Z"/><path class="cls-4" d="M149.67,87.84s-.07-.12-.1-.12c-1.22.09-2.12-.87-3.3-.93s-2.32,0-3.48,0h-.48c.16-.35.51-.39.7-.73-.65,0-1.26,0-1.87,0a9.49,9.49,0,0,1-3.13-.44,2.13,2.13,0,0,1-1.55-1.94.93.93,0,0,1,.79-1.12,11.11,11.11,0,0,1,1.52-.21,4.24,4.24,0,0,0,1.35-.37,1.63,1.63,0,0,0,1.09-1.1,1.22,1.22,0,0,1,1.3-.9,1.81,1.81,0,0,1,1.66,1,1.51,1.51,0,0,1-.19,1.66,1.42,1.42,0,0,1-.24.25c-.35.33-.79.58-.17,1.13.34.31.23.85,0,1.28-.11.22-.25.43-.41.71.84.06,1.65.11,2.46.18a5.49,5.49,0,0,1,2.9.83c.23.16.5.09.75.12.76.07.78.09.65.7Z"/><path class="cls-4" d="M198.13,150.6l1.09-1.09A1,1,0,0,1,198.13,150.6Z"/><path class="cls-4" d="M152.79,80a2.36,2.36,0,0,1-1.15.34,6.18,6.18,0,0,1,1.11-.67Z"/><path class="cls-4" d="M190.81,83.26l.75.74C191,84.06,190.75,83.87,190.81,83.26Z"/><path class="cls-4" d="M129.42,87.38l.38-.94c.07.37.2.57.16.82Z"/><path class="cls-4" d="M131.87,89.38l.21-.17a1.79,1.79,0,0,1,0,.23.52.52,0,0,1-.23.49.12.12,0,0,1-.19-.06A.44.44,0,0,1,131.87,89.38Z"/><path class="cls-4" d="M184.26,78.88a2.86,2.86,0,0,1,.94.47A.84.84,0,0,1,184.26,78.88Z"/><path class="cls-4" d="M188.75,125.11a2.24,2.24,0,0,1,.63.6Q188.72,125.77,188.75,125.11Z"/><path class="cls-4" d="M189.47,125.79a2.53,2.53,0,0,1,.59.63C189.61,126.44,189.42,126.23,189.47,125.79Z"/><path class="cls-4" d="M160,80.4c.07-.11.14-.21,0-.34.13-.14.28-.17.33.06S160.24,80.42,160,80.4Z"/><path class="cls-4" d="M152.88,89.25a1.55,1.55,0,0,1,.6.59C153.06,89.87,152.86,89.67,152.88,89.25Z"/><path class="cls-4" d="M117.36,81.59c.13-.26.21-.42.43-.44,0,0,.11.07.1.1C117.85,81.48,117.65,81.5,117.36,81.59Z"/><path class="cls-4" d="M135.66,85.09l.62.62C135.83,85.75,135.62,85.54,135.66,85.09Z"/><path class="cls-4" d="M128.09,88.62l0,0c-.14.1-.27.23-.46.19a.17.17,0,0,1-.07-.14c.1-.25.33-.12.5-.16l0,.06Z"/><path class="cls-4" d="M145,135a1,1,0,0,1,.48.48Q144.93,135.57,145,135Z"/><path class="cls-4" d="M159.82,76.66c-.15-.11-.38-.18-.34-.41s.22-.08.35-.09Z"/><path class="cls-4" d="M188.8,146.74a1.49,1.49,0,0,1-.53.47C188.24,146.83,188.43,146.69,188.8,146.74Z"/><path class="cls-4" d="M145.67,67.23l-.23.09c-.12-.1-.17-.23,0-.31S145.66,67.07,145.67,67.23Z"/><path class="cls-4" d="M153.8,89.32l-.52-.51C153.68,88.75,153.85,88.92,153.8,89.32Z"/><path class="cls-4" d="M140.11,94.92a.93.93,0,0,1,.49-.23C140.57,95,140.39,95.07,140.11,94.92Z"/><path class="cls-4" d="M167.62,57.05c.13,0,.31,0,.32.13s-.18.19-.32.24Z"/><path class="cls-4" d="M157.92,55.32l.46,0c0,.21-.19.29-.3.39Z"/><path class="cls-4" d="M150.74,87.39c-.14,0-.32,0-.32-.19s.17-.25.32-.32Z"/><path class="cls-4" d="M118.52,83.83c0-.2.12-.33.33-.35a.06.06,0,0,1,.05.08.38.38,0,0,1-.36.28Z"/><path class="cls-4" d="M158.81,55.19l-.18-.37C159,54.91,159,55,158.81,55.19Z"/><path class="cls-4" d="M128.79,87.38a.52.52,0,0,1-.16.37C128.28,87.45,128.61,87.44,128.79,87.38Z"/><path class="cls-4" d="M140.27,90.15a.5.5,0,0,1-.38.17C140,90.13,140,89.81,140.27,90.15Z"/><path class="cls-4" d="M137.11,94.55l.2.22c-.07.12-.16.17-.27,0S137,94.62,137.11,94.55Z"/><path class="cls-4" d="M151.46,91.72a.65.65,0,0,1,.36.37C151.54,92.12,151.42,92,151.46,91.72Z"/><path class="cls-4" d="M159.71,62.48a.5.5,0,0,1,.37.35C159.82,62.86,159.69,62.75,159.71,62.48Z"/><path class="cls-4" d="M144.61,92.44l-.35,0c0-.09,0-.18.15-.19S144.59,92.32,144.61,92.44Z"/><path class="cls-4" d="M146.62,93c-.06.1-.11.21-.25.18s-.06-.06-.05-.08.19-.08.29-.11Z"/><path class="cls-4" d="M137.06,86.3l.24.13C137.1,86.61,137.08,86.45,137.06,86.3Z"/><path class="cls-4" d="M203.37,143.42a.24.24,0,0,1,.12-.23C203.67,143.37,203.52,143.4,203.37,143.42Z"/><path class="cls-4" d="M152.39,141.42a.25.25,0,0,1-.11-.24C152.44,141.21,152.58,141.24,152.39,141.42Z"/><path class="cls-4" d="M140.48,137.64a.25.25,0,0,1,.12.23C140.45,137.85,140.3,137.83,140.48,137.64Z"/><path class="cls-4" d="M153.94,90.56a.22.22,0,0,1,.1.24C153.89,90.77,153.75,90.74,153.94,90.56Z"/><path class="cls-6" d="M128.68,80.19a.22.22,0,0,1-.25.1l.09-.25Z"/><path class="cls-4" d="M137.1,93c.17.21,0,.23-.14.3A.28.28,0,0,1,137.1,93Z"/><path class="cls-4" d="M124.08,82c.09,0,.23.1.19.17s-.2,0-.31,0Z"/><path class="cls-4" d="M165.92,76.79h.19c0,.15-.13,0-.2.07l0,0S165.9,76.79,165.92,76.79Z"/><path class="cls-4" d="M131.31,79.81c.08,0,.1.16.07.17s-.2-.08-.3-.13Z"/><path class="cls-5" d="M118.9,83.56a.06.06,0,0,0-.05-.08c0-.06.08-.17.15-.1S118.94,83.51,118.9,83.56Z"/><path class="cls-4" d="M126.24,84.29c.1-.06.21-.22.3,0Z"/><path class="cls-4" d="M157.23,140.09l0,0s0,0,.05,0l0,0Z"/><path class="cls-4" d="M130.64,80.41c0,.07.13.13.05.2s-.16,0-.22-.08Z"/><path class="cls-4" d="M155,70.13c-.07,0-.15.1-.2,0s.08-.15.14-.21Z"/><path class="cls-4" d="M146.61,93l0,0,0,.05Z"/><path class="cls-5" d="M151.87,93.7c-.05,0-.14,0-.15,0s0-.09.07-.11Z"/><path class="cls-5" d="M129,91.31a.83.83,0,0,1,.08.12l0,0,0-.14Z"/><path class="cls-5" d="M129,91.32l.14-.06a.27.27,0,0,1,.07.08c-.08.06-.16.15-.22,0Z"/><polygon class="cls-4" points="157.96 140.27 157.99 140.25 157.99 140.28 157.96 140.27"/><path class="cls-5" d="M128,88.55l.16-.14.09.09-.18.12H128Z"/><path class="cls-4" d="M146.47,68.73c0,.07,0,.11-.09.09s0,0,0-.08Z"/><path class="cls-4" d="M118.54,83.84l0,0,0-.06Z"/><path class="cls-5" d="M156.64,151.09l-.07-.07s0,0,.06,0,.05,0,0,.08Z"/><path class="cls-7" d="M140.64,77.1a1,1,0,0,1-.6,1.28,2.13,2.13,0,0,1-1.55.11.9.9,0,0,1-.69-1c.19.21.36.41.63.28a.41.41,0,0,0,.26-.37c0-.28-.27-.29-.48-.38.15-.31.44-.36.72-.42l1.26,0h0l.18.11C140.43,76.88,140.45,77.06,140.64,77.1Z"/><path class="cls-8" d="M140.64,77.1c-.19,0-.21-.22-.28-.36l-.18-.11h0a1,1,0,0,0-1.24-.11c-.35,0-.78.09-1-.5a2.2,2.2,0,0,0,2.41-1c0,.53-.28.79-.5,1.12a2.77,2.77,0,0,0,2.21-1.45,2.28,2.28,0,0,1-.88,1.69c.75,0,1.18-.46,1.71-.79C142.73,76.43,141.93,76.93,140.64,77.1Z"/><path class="cls-9" d="M130.14,82.62c-.06-.57-.34-.78-.93-.61s-1.15.37-1.72.56a.63.63,0,0,1-.75-.16,2.92,2.92,0,0,0,1.68-.32,2.67,2.67,0,0,1,1.3-.27C130.24,81.89,130.41,82.22,130.14,82.62Z"/><path class="cls-10" d="M130,83.18c1,.14,1.33-.23,1.28-1.3a.79.79,0,0,1,.09,1,1.15,1.15,0,0,1-1.45.38Z"/><path class="cls-6" d="M126.8,81.25c.1,0,.22-.16.3-.14.53.12.79-.17,1-.59l.06.07c-.1.52-.27.94-.95.71-.11,0-.26,0-.4.06A.37.37,0,0,1,126.8,81.25Z"/><path class="cls-11" d="M139,76.53a1,1,0,0,1,1.24.11l-1.26,0S138.94,76.56,139,76.53Z"/><path class="cls-9" d="M129.93,83.29a.84.84,0,0,1-.17-.05c-.17-.12-.43-.23-.36-.47s.33-.08.6-.13c-.45.28-.17.4,0,.54Z"/><path class="cls-9" d="M126.54,82.31a.57.57,0,0,1,0-.72Z"/><path class="cls-9" d="M126.8,81.25a.37.37,0,0,0,0,.11l-.17.1C126.58,81.31,126.71,81.3,126.8,81.25Z"/><path class="cls-10" d="M131.1,81.68c-.07-.06-.24-.08-.12-.22s.15,0,.19.12Z"/><path class="cls-4" d="M131.08,86.14l-.07.07s-.06-.06-.06-.09l.07-.07Z"/><path class="cls-9" d="M126.66,82.34l0,.07s0,0,0,0,0,0,0-.07Z"/><path class="cls-8" d="M143,75.56l-.07,0,0,0,.07,0Z"/><path class="cls-6" d="M128.19,80.39c0-.07.08-.14.16,0l-.09.12Z"/><path class="cls-6" d="M128.08,80.52l.11-.13.07.07-.12.13Z"/><polygon class="cls-4" points="130.85 80.74 130.83 80.7 130.87 80.7 130.85 80.74"/><path class="cls-10" d="M131.17,81.58s.09.09.09.1-.11,0-.16,0Z"/><path class="cls-11" d="M140.18,76.63l.18.11Z"/></svg>