<svg id="Layer_1" data-name="Layer 1" xmlns="http://www.w3.org/2000/svg" viewBox="0 0 335 221"><defs><style>.cls-1{fill:#010101;}.cls-2{fill:none;}.cls-3{fill:#fff;}</style></defs><path class="cls-1" d="M89.38,170.71s27.32-13.32,78.79-13.27,78.16,13.45,78.16,13.45L236,193.13s-31.72-11.92-68-11c-44.82,1.1-68.37,10.06-68.37,10.06Z"/><path class="cls-2" d="M151.71,41.21a110.38,110.38,0,0,1,8-9.88,107.22,107.22,0,0,0-13.77,9C147.88,40.68,149.79,41,151.71,41.21Z"/><path class="cls-2" d="M201.27,36.68A80.69,80.69,0,0,0,177.71,30a106.76,106.76,0,0,1,15,9.11Q197,38,201.27,36.68Z"/><path class="cls-2" d="M137.55,42.44q-4.87-1.2-9.63-2.82a81.85,81.85,0,0,0-25,21.66q6.95,3.16,14.16,5.62A110.48,110.48,0,0,1,137.55,42.44Z"/><path class="cls-2" d="M153.65,30.49a80.31,80.31,0,0,0-21,6.67q4.19,1.26,8.45,2.22A109.65,109.65,0,0,1,153.65,30.49Z"/><path class="cls-2" d="M120.82,68.11a157,157,0,0,0,15.38,4,108.64,108.64,0,0,1,13.11-27.32q-3.6-.51-7.17-1.25A106.48,106.48,0,0,0,120.82,68.11Z"/><path class="cls-2" d="M173.2,32A109.54,109.54,0,0,1,181,41.18c2.21-.28,4.39-.62,6.57-1A105,105,0,0,0,173.2,32Z"/><path class="cls-2" d="M206.08,39.09q-4.72,1.66-9.54,2.92a108.38,108.38,0,0,1,22.63,24.67q6.63-2.28,13-5.17A81.75,81.75,0,0,0,206.08,39.09Z"/><path class="cls-2" d="M191.78,43.17c-2.73.6-5.49,1.09-8.27,1.49a108,108,0,0,1,13.92,27.83,154.94,154.94,0,0,0,18-4.54A104.53,104.53,0,0,0,191.78,43.17Z"/><path class="cls-1" d="M197.45,185.94A81.14,81.14,0,0,1,179,190.86l-5.54.6c-2,.14-4,.22-6,.22-1.45,0-2.88,0-4.3-.12l-5.51-.47a80.84,80.84,0,0,1-19.88-5l-7.32.93a84.61,84.61,0,0,0,22.79,7.3h0c1.81.32,3.64.56,5.49.75h0a84.78,84.78,0,0,0,8.73.44h3.13l1.92-.08.59,0c.71,0,1.41-.1,2.12-.16h.3c.84-.08,1.67-.17,2.5-.27h0c1.86-.23,3.7-.53,5.52-.88h0a84,84,0,0,0,20.81-6.9Z"/><path class="cls-1" d="M252.43,108.53v-.62c0-.46,0-.92-.05-1.37v-.67c0-.52-.06-1-.1-1.56,0-.29-.05-.59-.07-.88s-.07-.88-.11-1.27l-.11-1a7,7,0,0,0-.09-.8c0-.27-.09-.77-.14-1.15l0-.33A84.48,84.48,0,0,0,238,63h0l-.29-.4c-.54-.79-1.09-1.57-1.66-2.35l-.28-.38h0a85.6,85.6,0,0,0-25-22.57h0c-1.42-.83-2.86-1.63-4.34-2.4h0a83.94,83.94,0,0,0-27.53-8.68h0c-.74-.11-1.47-.2-2.2-.27h-.09c-.74-.08-1.48-.14-2.23-.2h0l-2.31-.15h0c-1.49-.08-3-.11-4.48-.11a85.62,85.62,0,0,0-10.12.6h0a84.08,84.08,0,0,0-29.79,9.36h0q-2.2,1.18-4.33,2.47h0A85.57,85.57,0,0,0,99.55,59.63h0c-.77,1-1.52,2.07-2.24,3.14h0a84.61,84.61,0,0,0-14,36.16v.2l-.19,1.23-.08.69a10.32,10.32,0,0,1-.11,1.09l-.11,1.21c0,.35-.06.7-.08,1.05s-.07.95-.09,1.41v.71a12.37,12.37,0,0,1-.05,1.35v5.69a13.33,13.33,0,0,0,.07,1.67l0,.78c0,.54.07,1.1.12,1.64a2.76,2.76,0,0,0,.06.7c.06.6.12,1.19.18,1.76a1.57,1.57,0,0,0,.06.53c.09.72.19,1.44.28,2.14v.13a84.67,84.67,0,0,0,17.09,39.79l4-1.08a81,81,0,0,1-3.84-97.25,153.53,153.53,0,0,0,14.48,5.83,98.64,98.64,0,0,0-8.72,19.72s1.33-.69,2.44-1.2,2.34-1,2.34-1a96.06,96.06,0,0,1,7.61-16.28,160.5,160.5,0,0,0,16.29,4.27A89.94,89.94,0,0,0,132.25,89a19.58,19.58,0,0,1,1.87,1.42c.88.78,1.58,1.43,1.58,1.43a89.36,89.36,0,0,1,3.14-15.37c1.39.25,2.11.38,3.53.6a10.26,10.26,0,0,1,1.08-1.76,15.23,15.23,0,0,1,1.82-1.68c-1.92-.27-3.4-.52-5.28-.88a105.33,105.33,0,0,1,13.57-27.55c2.83.3,5.68.52,8.53.61,0,0,.29-1.3.44-1.76s.88-2,.88-2c-2.43-.06-4.85-.21-7.26-.41a107.94,107.94,0,0,1,10-11.46A105.24,105.24,0,0,1,176.74,41.6c-3,.26-5.29.42-8.25.46a16,16,0,0,0,.27,2.18,3.27,3.27,0,0,0,.79,1.6c3.52-.08,6.4-.3,9.87-.69A103.52,103.52,0,0,1,193.78,73.1c-1.39.23-2.8.45-4.21.63A15.32,15.32,0,0,1,191,75.49c.54.84,1.11,1.69,1.11,1.69q1.4-.21,2.79-.45a92.5,92.5,0,0,1,3.53,17.36s1.17-1.48,1.76-2.15c.43-.48,1.54-1.49,1.54-1.49a95.41,95.41,0,0,0-3.15-14.39,160.36,160.36,0,0,0,18.93-4.78,89.58,89.58,0,0,1,7.19,13.59,11.56,11.56,0,0,1,2.49.83A22.81,22.81,0,0,1,229.76,87a93.87,93.87,0,0,0-8.49-17q6.71-2.35,13.21-5.28A81,81,0,0,1,233.33,158l-3.3,4,4.2,1.11a84.6,84.6,0,0,0,17.05-38.25h0c.1-.62.2-1.27.3-1.9v-.26c.08-.57.16-1.15.23-1.76l.05-.47c.06-.52.12-1,.17-1.55a2.61,2.61,0,0,1,.06-.68c0-.45.09-.88.12-1.37l0-.88c0-.39.06-.78.08-1.16s0-.81,0-1.23a6.4,6.4,0,0,0,0-.88v-2.13C252.38,109.87,252.45,109.17,252.43,108.53Zm-98.78-78a109.65,109.65,0,0,0-12.53,8.89q-4.25-1-8.45-2.22A80.31,80.31,0,0,1,153.65,30.49ZM117.12,66.88q-7.22-2.47-14.16-5.62a81.66,81.66,0,0,1,25-21.64q4.77,1.6,9.63,2.82A110.15,110.15,0,0,0,117.12,66.88Zm19.08,5.19a155.47,155.47,0,0,1-15.34-4,106.13,106.13,0,0,1,21.28-24.67c2.38.49,4.77.88,7.17,1.25A108.69,108.69,0,0,0,136.2,72.07Zm15.55-30.84q-2.88-.36-5.74-.88a108.63,108.63,0,0,1,13.77-9,110.57,110.57,0,0,0-8.07,9.87ZM201.3,36.7c-2.84.91-5.7,1.7-8.6,2.38a106.29,106.29,0,0,0-15-9.11,80.2,80.2,0,0,1,23.55,6.71ZM173.2,32a105,105,0,0,1,14.35,8.13c-2.18.42-4.37.76-6.57,1A109.54,109.54,0,0,0,173.2,32Zm24.23,40.48a108,108,0,0,0-13.92-27.83c2.78-.4,5.54-.88,8.27-1.49A104.53,104.53,0,0,1,215.4,68,154.94,154.94,0,0,1,197.43,72.49Zm21.74-5.78A108.38,108.38,0,0,0,196.54,42q4.82-1.27,9.54-2.93a81.92,81.92,0,0,1,26.16,22.43q-6.44,2.88-13.07,5.17Z"/><path class="cls-3" d="M145.11,163.22l5.41,6.75,4-7.52,2.43-.2-5,9.48.55,6.84-3.6.3-.54-6.61-7-8.74Z"/><path class="cls-3" d="M148.62,179.16l-.55-6.8-7.26-9.06,4.41-.37,5.29,6.54,3.82-7.28,3.08-.25-5.19,9.84.57,7.05Zm-6.75-15.36,6.72,8.39.52,6.44,3.07-.26-.55-6.66v-.07l4.83-9.08-1.76.15-4.07,7.75-5.59-7Z"/><path class="cls-3" d="M163.07,162l5.35.07a12.75,12.75,0,0,1,3.78.59,8.55,8.55,0,0,1,3,1.56,6.79,6.79,0,0,1,1.9,2.48,7.64,7.64,0,0,1,.64,3.33,8.26,8.26,0,0,1-.63,3.14,7.34,7.34,0,0,1-1.76,2.54,7.72,7.72,0,0,1-2.79,1.7,10.49,10.49,0,0,1-3.76.58l-5.93-.09Zm3.4,14.32h1.92a4.73,4.73,0,0,0,3.68-1.6,6.22,6.22,0,0,0,1.14-2,8.51,8.51,0,0,0,.45-2.74,7.83,7.83,0,0,0-.34-2.5,6.38,6.38,0,0,0-1-2,5,5,0,0,0-1.62-1.33,4.65,4.65,0,0,0-2.07-.51h-1.92Z"/><path class="cls-3" d="M169,178.31h-.21l-6.17-.1.25-16.45,5.62.09a13.27,13.27,0,0,1,3.85.59,9.22,9.22,0,0,1,3,1.61,7.35,7.35,0,0,1,2,2.58,8,8,0,0,1,.66,3.45,8.79,8.79,0,0,1-.65,3.24,7.94,7.94,0,0,1-1.82,2.65,8.53,8.53,0,0,1-2.88,1.76A11,11,0,0,1,169,178.31Zm-5.85-.63,5.64.08a10,10,0,0,0,3.68-.55,7.83,7.83,0,0,0,2.69-1.64,7.21,7.21,0,0,0,1.69-2.46,8.33,8.33,0,0,0,.61-3,7.38,7.38,0,0,0-.61-3.21,6.48,6.48,0,0,0-1.83-2.38,8.49,8.49,0,0,0-2.86-1.52,12.59,12.59,0,0,0-3.71-.56l-5.07-.08Zm5.36-1H166.2l.2-13.22h2.2a4.92,4.92,0,0,1,2.19.54,5.36,5.36,0,0,1,1.7,1.4,6.55,6.55,0,0,1,1.08,2.08,8,8,0,0,1,.36,2.57,8.74,8.74,0,0,1-.46,2.83,6.23,6.23,0,0,1-1.2,2.09,5.08,5.08,0,0,1-1.76,1.29,5.32,5.32,0,0,1-2,.42Zm-1.76-.56h1.66a4.72,4.72,0,0,0,1.89-.37,4.49,4.49,0,0,0,1.57-1.16,5.85,5.85,0,0,0,1.09-1.91,7.9,7.9,0,0,0,.43-2.64,7.25,7.25,0,0,0-.33-2.4,6,6,0,0,0-1-1.91,4.9,4.9,0,0,0-1.53-1.26,4.42,4.42,0,0,0-1.95-.48H166.9Z"/><path class="cls-3" d="M195.57,163.91l-.14,1.35-6.93-.7-.53,5.22,6.11.62-.14,1.35-6.11-.61-.79,7.93-3.61-.36L185,162.85Z"/><path class="cls-3" d="M187.3,179.33l-4.14-.41,1.66-16.37,11.06,1.12-.21,1.89-6.93-.7-.47,4.67,6.11.63-.2,1.89-6.1-.62Zm-3.52-.88,3.05.31.81-7.93,6.1.62.08-.81-6.1-.63.58-5.75,6.93.7.08-.82-10-1Z"/><path d="M246.4,140.33a84.77,84.77,0,0,1-5.49,11.55c-.88,1.5-1.69,3-2.53,4.54a1,1,0,0,0-.09.21l8.46,10.86-.08.18a290.15,290.15,0,0,0-44.12-10.43c.49-1.09.88-2,1.37-3l-.64-.31c-4-1.76-7.93-3.62-12-5.4-.61-.26-.67-.56-.43-1.09.4-.88.78-1.76,1.17-2.64a1.05,1.05,0,0,0-.27-1.35c-1.13-.93-2.2-2-3.4-2.8a5.29,5.29,0,0,0-3.36-.76,10.77,10.77,0,0,1-7.69-2.42,8.25,8.25,0,0,1-2.27-8.23,1,1,0,0,1,1.76-.63,13.79,13.79,0,0,0,7.64,2c1,0,1.43-.44,1.33-1.47-.07-.73-.27-1.46-.35-2.18a1.06,1.06,0,0,1,.2-.81,1.09,1.09,0,0,1,.83,0,14.39,14.39,0,0,1,6.47,6.3c.8,1.41,1.5,2.88,2.25,4.32l.32.62c.53-1.31,1-2.5,1.49-3.71.52-1.44.88-1.6,2.32-1.07,2.84,1.05,5.71,2.05,8.54,3.12a22.45,22.45,0,0,0,5.76.94c1.64.17,1.7.17,2.24-1.4.93-2.75.71-2.53-1.23-4.19-.88.46-1.68.93-2.55,1.37-2.1,1-3.32.94-5-.68a38.65,38.65,0,0,1-2.88-3.25c-.88-1.08-1.69-2.21-2.53-3.32a9,9,0,0,1-1.61-6.47c.09-.88.2-1.77.36-2.65a2,2,0,0,0-1.06-2.16,31.2,31.2,0,0,1-2.95-2.43,3.73,3.73,0,0,1-1.16-2.48,2.88,2.88,0,0,1,.14-1.27,43.12,43.12,0,0,1,6.17-10.79,29.48,29.48,0,0,1,7.93-6.74,16.26,16.26,0,0,1,11.12-1.84,26.2,26.2,0,0,1,12.17,5.4,16.17,16.17,0,0,1,5.73,9.91,46.47,46.47,0,0,1,.77,9.2c0,2.42-.15,4.84-.25,7.27a2.79,2.79,0,0,1-1.44,2.39c-1.14.68-2.28,1.34-3.42,2l-.83.47c.48.26.88.5,1.3.7a6.55,6.55,0,0,1,3.85,6.08,1.85,1.85,0,0,0,1,1.71c1,.59,1.95,1.27,2.91,1.91.17.11.31.23.58.44Z"/><path d="M93.61,140.16c.21-.43.37-.82.57-1.17a7.67,7.67,0,0,1,3.52-3.07,2.38,2.38,0,0,0,1.39-2.11,6.11,6.11,0,0,1,3.61-5.5c1.15-.53,1.37-1.2.82-2.39-.83-1.76-1.76-3.44-2.58-5.18A20.3,20.3,0,0,1,104.42,98a19.48,19.48,0,0,1,11.63-5.92,20.93,20.93,0,0,1,10.24.73,18.3,18.3,0,0,1,8.81,6.75c1.63,2.24,3.12,4.59,4.6,6.94,1,1.52.66,2.46-.88,3.34-1.27.7-1.42,1-1.25,2.5.28,2.53,0,4.88-2,6.73a1.36,1.36,0,0,0-.33,1.48,9.55,9.55,0,0,1-1.08,7.71,21.6,21.6,0,0,1-4.7,6,3.69,3.69,0,0,1-3.77.84c-.53-.17-1-.43-1.53-.62a6.22,6.22,0,0,0-1.45-.44,1.63,1.63,0,0,0-1.89,1.32,1.71,1.71,0,0,0,.13,1c.26.75.5,1.52.79,2.27a.65.65,0,0,0,.48.32,33.31,33.31,0,0,0,14.87-3.67c.32-.17.64-.34,1-.48.73-.31,1.08-.21,1.38.51.46,1.12.88,2.25,1.29,3.38.07.19.16.38.28.69.46-.78.83-1.46,1.24-2.12,1.11-1.8,2.15-3.65,3.38-5.37a8.54,8.54,0,0,1,4.41-3.07c.78-.25,1.06,0,1,.8,0,.61-.12,1.22-.19,1.84a1.08,1.08,0,0,0,.77,1.3,1.1,1.1,0,0,0,.36,0,11.51,11.51,0,0,0,7.47-1.76.81.81,0,0,1,1.16.09.8.8,0,0,1,.17.33,7.36,7.36,0,0,1-3.4,9.24,14.24,14.24,0,0,1-5.69,1.47,9.54,9.54,0,0,0-6.62,3.1,1.81,1.81,0,0,0-.46,2.54c.34.78.72,1.53,1.13,2.4-.95.48-1.9,1-2.86,1.44l-8.32,4a6.92,6.92,0,0,0-1.41.88,7.16,7.16,0,0,1-3.79,1.42,213.94,213.94,0,0,0-29.33,6c-3.27.88-6.49,2-9.69,3a1.41,1.41,0,0,1-.58.07c2.59-2.06,5.17-4.13,7.77-6.17,1.12-.88,1.25-1.58.42-2.76-4.29-6.08-4.91-6.48-7.35-13.48Z"/><path d="M147.45,75.69c-.15,1.3-.34,2.56-.42,3.83a6.13,6.13,0,0,0,1.12,4.06A3.68,3.68,0,0,0,150,84.72c.63.2,1.29-.5,1.27-1.32a19.2,19.2,0,0,0-.3-3c-.27-1.68-.88-3.45-.23-5.1a7.05,7.05,0,0,1,1.93-3.34A6.82,6.82,0,0,0,154,73c.75.38,1.29-.05,1.34-.88a38.09,38.09,0,0,1,.29-4.4,6.15,6.15,0,0,1,3-4.18V65.1a23.81,23.81,0,0,0,.31,3.27,2.34,2.34,0,0,0,2.36,2A3.07,3.07,0,0,0,164,68.29,5.69,5.69,0,0,0,163,62.9c-.22-.29-.47-.56-.71-.88a4.87,4.87,0,0,1-.21-6.08c.38.5.72,1,1.13,1.48,1,1.14,2.14,1,2.75-.39a3.71,3.71,0,0,0-.46-4.2,6.16,6.16,0,0,1-1.51-5,13.79,13.79,0,0,1,2.36-5.8c.17,1,.33,2,.52,3a6.63,6.63,0,0,0,3,4.65,5.64,5.64,0,0,1,2.21,6.52,7.44,7.44,0,0,0-.65,3.86,1.87,1.87,0,0,0,.88,1.56,1.56,1.56,0,0,0,2.15-.5,1.85,1.85,0,0,0,.18-.44,7.54,7.54,0,0,0,.3-1.13c.09-.38.15-.76.24-1.19a2.9,2.9,0,0,1,.59.09,5.06,5.06,0,0,1,3.68,5.45c-.09.88-.19,1.68-.26,2.52a6.48,6.48,0,0,0,.81,3.76c.26.49.61,1,1.27,1s.88-.65,1.08-1.17a8.66,8.66,0,0,0,.24-1.41,4.44,4.44,0,0,1,1.84,3.72,35,35,0,0,1-.7,4.88,7.62,7.62,0,0,0,.88,5.14,1.76,1.76,0,0,0,3.25,0,15.07,15.07,0,0,0,.77-2.64c.05-.19.08-.37.13-.6a5,5,0,0,1,2.79,2,13.44,13.44,0,0,1,2,7.3,40.34,40.34,0,0,1-1.18,8.81A38.07,38.07,0,0,1,183,116a20.45,20.45,0,0,1-11.5,6.75,19.19,19.19,0,0,1-16.29-4.31,31.37,31.37,0,0,1-10.31-16.75A51.42,51.42,0,0,1,143,87.3a22.56,22.56,0,0,1,1.22-7A15,15,0,0,1,147.45,75.69Zm19.45,4c-2.3,3.1-4.59,6-6.71,9.1a33,33,0,0,0-3.14,5.43,17.06,17.06,0,0,0,1.71,17.62,10.17,10.17,0,0,0,13.56,3.27,13.19,13.19,0,0,0,6.66-9,20.07,20.07,0,0,0-1.67-12.8A36.8,36.8,0,0,0,170.89,84c-1.28-1.43-2.6-2.84-4-4.34Z"/><path d="M161.61,91.85c3.44,4.8,8.69,4.3,11.38.38a9.17,9.17,0,0,1-.24,1.27,7.74,7.74,0,0,1-2.64,3.75,4.17,4.17,0,0,1-5.14,0A8.45,8.45,0,0,1,161.61,91.85Z"/><path d="M163.86,88.69a4.48,4.48,0,0,0,3.66,1.85,5.31,5.31,0,0,0,3.6-1.83,5.2,5.2,0,0,1-2.89,3.72,2.45,2.45,0,0,1-1.56,0A4.4,4.4,0,0,1,163.86,88.69Z"/><path d="M165.55,85.24c1.68,1.24,2.36,1.23,3.86,0a2.34,2.34,0,0,1-2,2.06A2.24,2.24,0,0,1,165.55,85.24Z"/></svg>